<mxfile host="app.diagrams.net" modified="2023-09-05T21:32:00.670Z" agent="Mozilla/5.0 (X11; Ubuntu; Linux x86_64; rv:109.0) Gecko/20100101 Firefox/116.0" etag="tlyfqCTrjMtv7Q9wjE3z" version="21.7.2" type="github">
  <diagram name="Page-1" id="wF1uMGhLeyXnpZ27aQJU">
    <mxGraphModel dx="689" dy="497" grid="1" gridSize="10" guides="1" tooltips="1" connect="1" arrows="1" fold="1" page="1" pageScale="1" pageWidth="850" pageHeight="1100" math="0" shadow="0">
      <root>
        <mxCell id="0" />
        <mxCell id="1" parent="0" />
        <mxCell id="kVbF6EgV8bhvYfWOTuWb-29" value="" style="endArrow=classic;html=1;rounded=0;" parent="1" edge="1">
          <mxGeometry width="50" height="50" relative="1" as="geometry">
            <mxPoint x="410" y="540" as="sourcePoint" />
            <mxPoint x="410" y="630" as="targetPoint" />
          </mxGeometry>
        </mxCell>
        <mxCell id="kVbF6EgV8bhvYfWOTuWb-28" value="" style="endArrow=classic;html=1;rounded=0;" parent="1" edge="1">
          <mxGeometry width="50" height="50" relative="1" as="geometry">
            <mxPoint x="574.71" y="500" as="sourcePoint" />
            <mxPoint x="574.71" y="630" as="targetPoint" />
          </mxGeometry>
        </mxCell>
        <mxCell id="kVbF6EgV8bhvYfWOTuWb-27" value="" style="endArrow=classic;html=1;rounded=0;" parent="1" edge="1">
          <mxGeometry width="50" height="50" relative="1" as="geometry">
            <mxPoint x="205" y="510" as="sourcePoint" />
            <mxPoint x="204.5" y="630" as="targetPoint" />
          </mxGeometry>
        </mxCell>
        <mxCell id="kVbF6EgV8bhvYfWOTuWb-7" value="synthesized" style="rounded=0;whiteSpace=wrap;html=1;fillColor=#fff2cc;strokeColor=#d6b656;spacingTop=-30;" parent="1" vertex="1">
          <mxGeometry x="120" y="449.99999999999994" width="170" height="50" as="geometry" />
        </mxCell>
        <mxCell id="kVbF6EgV8bhvYfWOTuWb-6" value="bundled" style="rounded=0;whiteSpace=wrap;html=1;spacingTop=-60;fillColor=#fff2cc;strokeColor=#d6b656;" parent="1" vertex="1">
          <mxGeometry x="300" y="450.69" width="210" height="80" as="geometry" />
        </mxCell>
        <mxCell id="kVbF6EgV8bhvYfWOTuWb-1" value="&lt;div&gt;generated-lift-lower.wasm&lt;/div&gt;" style="rounded=1;whiteSpace=wrap;html=1;fillColor=#e1d5e7;strokeColor=#9673a6;" parent="1" vertex="1">
          <mxGeometry x="130" y="469.99999999999994" width="150" height="20" as="geometry" />
        </mxCell>
        <mxCell id="kVbF6EgV8bhvYfWOTuWb-2" value="&lt;div&gt;runtime.so&lt;/div&gt;" style="rounded=1;whiteSpace=wrap;html=1;fillColor=#e1d5e7;strokeColor=#9673a6;" parent="1" vertex="1">
          <mxGeometry x="310" y="470.69" width="70" height="20" as="geometry" />
        </mxCell>
        <mxCell id="kVbF6EgV8bhvYfWOTuWb-3" value="libpython3.11.so" style="rounded=1;whiteSpace=wrap;html=1;fillColor=#e1d5e7;strokeColor=#9673a6;" parent="1" vertex="1">
          <mxGeometry x="400" y="470.69" width="100" height="20" as="geometry" />
        </mxCell>
        <mxCell id="kVbF6EgV8bhvYfWOTuWb-4" value="&lt;div&gt;libc.so&lt;/div&gt;" style="rounded=1;whiteSpace=wrap;html=1;fillColor=#e1d5e7;strokeColor=#9673a6;" parent="1" vertex="1">
          <mxGeometry x="310" y="500.69" width="50" height="20" as="geometry" />
        </mxCell>
        <mxCell id="kVbF6EgV8bhvYfWOTuWb-5" value="&lt;div&gt;wasi_preview1.wasm&lt;/div&gt;" style="rounded=1;whiteSpace=wrap;html=1;fillColor=#e1d5e7;strokeColor=#9673a6;" parent="1" vertex="1">
          <mxGeometry x="370" y="500.69" width="130" height="20" as="geometry" />
        </mxCell>
        <mxCell id="kVbF6EgV8bhvYfWOTuWb-12" value="native-extension.so" style="rounded=1;whiteSpace=wrap;html=1;fillColor=#e1d5e7;strokeColor=#9673a6;" parent="1" vertex="1">
          <mxGeometry x="520" y="470.69" width="110" height="20" as="geometry" />
        </mxCell>
        <mxCell id="kVbF6EgV8bhvYfWOTuWb-18" value="synthesized" style="rounded=0;whiteSpace=wrap;html=1;fillColor=#fff2cc;strokeColor=#d6b656;spacingTop=-30;" parent="1" vertex="1">
          <mxGeometry x="220" y="550" width="170" height="50" as="geometry" />
        </mxCell>
        <mxCell id="kVbF6EgV8bhvYfWOTuWb-20" value="main.wasm" style="rounded=1;whiteSpace=wrap;html=1;fillColor=#e1d5e7;strokeColor=#9673a6;" parent="1" vertex="1">
          <mxGeometry x="230" y="570" width="70" height="20" as="geometry" />
        </mxCell>
        <mxCell id="kVbF6EgV8bhvYfWOTuWb-21" value="init.wasm" style="rounded=1;whiteSpace=wrap;html=1;fillColor=#e1d5e7;strokeColor=#9673a6;" parent="1" vertex="1">
          <mxGeometry x="310" y="570" width="70" height="20" as="geometry" />
        </mxCell>
        <mxCell id="kVbF6EgV8bhvYfWOTuWb-22" style="edgeStyle=orthogonalEdgeStyle;rounded=0;orthogonalLoop=1;jettySize=auto;html=1;exitX=0.5;exitY=1;exitDx=0;exitDy=0;" parent="1" source="kVbF6EgV8bhvYfWOTuWb-7" target="kVbF6EgV8bhvYfWOTuWb-7" edge="1">
          <mxGeometry relative="1" as="geometry" />
        </mxCell>
        <mxCell id="kVbF6EgV8bhvYfWOTuWb-30" value="" style="endArrow=classic;html=1;rounded=0;" parent="1" edge="1">
          <mxGeometry width="50" height="50" relative="1" as="geometry">
            <mxPoint x="309" y="610" as="sourcePoint" />
            <mxPoint x="309" y="630" as="targetPoint" />
          </mxGeometry>
        </mxCell>
        <mxCell id="kVbF6EgV8bhvYfWOTuWb-31" value="uninitialized-component.wasm" style="rounded=1;whiteSpace=wrap;html=1;fillColor=#e1d5e7;strokeColor=#9673a6;" parent="1" vertex="1">
          <mxGeometry x="290" y="700" width="170" height="20" as="geometry" />
        </mxCell>
        <mxCell id="kVbF6EgV8bhvYfWOTuWb-33" value="" style="endArrow=classic;html=1;rounded=0;" parent="1" edge="1">
          <mxGeometry width="50" height="50" relative="1" as="geometry">
            <mxPoint x="380" y="670" as="sourcePoint" />
            <mxPoint x="380" y="690" as="targetPoint" />
          </mxGeometry>
        </mxCell>
        <mxCell id="kVbF6EgV8bhvYfWOTuWb-34" value="wit-component encode" style="rounded=0;whiteSpace=wrap;html=1;fillColor=#dae8fc;strokeColor=#6c8ebf;" parent="1" vertex="1">
          <mxGeometry x="150" y="640" width="460" height="20" as="geometry" />
        </mxCell>
        <mxCell id="kVbF6EgV8bhvYfWOTuWb-43" style="edgeStyle=orthogonalEdgeStyle;rounded=0;orthogonalLoop=1;jettySize=auto;html=1;exitX=0.5;exitY=1;exitDx=0;exitDy=0;" parent="1" edge="1">
          <mxGeometry relative="1" as="geometry">
            <mxPoint x="555" y="730" as="sourcePoint" />
            <mxPoint x="555" y="730" as="targetPoint" />
          </mxGeometry>
        </mxCell>
      </root>
    </mxGraphModel>
  </diagram>
</mxfile>
